<svg xmlns="http://www.w3.org/2000/svg" xml:space="preserve" width="655.359" height="655.359" style="shape-rendering:geometricPrecision;text-rendering:geometricPrecision;image-rendering:optimizeQuality;fill-rule:evenodd;clip-rule:evenodd" viewBox="0 0 6.827 6.827"><defs><clipPath id="id0"><path d="M3.413 0a3.413 3.413 0 1 1 0 6.827 3.413 3.413 0 0 1 0-6.827z"/></clipPath><style>.fil1{fill:#2f1c87}.fil4{fill:#c0ca33;fill-rule:nonzero}</style></defs><g id="Layer_x0020_1"><path d="M3.413 0a3.413 3.413 0 1 1 0 6.827 3.413 3.413 0 0 1 0-6.827z" style="fill:#4527a0"/><g style="clip-path:url(#id0)"><g id="_328326864"><path id="_3305274321" class="fil1" d="m4.38 2.458 3.785 3.786-1.625.586-3.786-3.787z"/><path id="_330527384" class="fil1" d="m4.852 4.186 3.786 3.787.002.014L8.64 8v.014l.001.015v.015l-.001.015-.002.015-.002.015-.003.015-.003.015-.004.015-.005.016-.005.015-.006.015-.006.016-.007.015-.008.015-.008.015-.01.015-.009.016-.01.015-.011.014-.012.015-.012.015-.013.014-.013.014-.014.014-.015.014-.015.014-.016.013-.017.013-.018.013-3.786-3.786.017-.013.017-.013.016-.013.016-.014.015-.014.014-.014.013-.014.013-.015.012-.014.012-.015.01-.015.01-.015.01-.015.01-.015.008-.015.007-.015.007-.016.007-.015.006-.015.005-.016.004-.015.004-.015.004-.016.003-.015.002-.015.001-.015.001-.015v-.043L4.853 4.2z"/><path id="_330528752" class="fil1" d="M2.754 3.043 6.54 6.83l.244 1.634-3.787-3.787z"/><path id="_330528824" class="fil1" d="m4.458 1.547 3.786 3.786.394 2.64-3.786-3.787z"/><path id="_330528176" class="fil1" d="m4.611 4.655 3.786 3.786-.025.018-.025.015-.025.015-.026.014-.025.012-.026.011-.026.01-.025.009-.026.007-.026.007-.025.005-.025.005-.025.003-.025.002-.025.001H7.97l-.023-.003-.023-.002-.022-.004-.022-.005-.021-.006-.02-.006-.02-.008-.02-.008-.018-.01-.018-.01-.017-.01-.016-.012-.015-.012-.014-.014L3.913 4.68l.015.013.015.013.016.011.017.011.017.01.019.01.019.008.02.007.02.007.022.006.022.004.022.004.023.003.023.002H4.256l.024-.003.025-.003.026-.004.025-.005.026-.007.025-.008.026-.008.026-.01.025-.011.026-.013.026-.013.025-.015.025-.016z"/><path id="_330528248" class="fil1" d="m2.997 4.677 3.787 3.787.002.014v.014l.002.015V8.536l-.002.015-.001.015-.002.015-.003.015-.004.015-.004.015-.004.016-.005.015-.006.015-.007.016-.007.015-.007.015-.009.016-.009.015-.01.015-.01.015-.01.015-.012.014-.012.015-.013.014-.013.015-.014.014-.015.014-.016.013-.016.014-.016.013-.018.013-3.786-3.787.017-.013.017-.013.016-.013.016-.014.014-.014.015-.014.013-.014.013-.014.012-.015.011-.015.011-.014.01-.015.01-.016.01-.015.007-.015.008-.015.007-.015.007-.016.005-.015.006-.016.004-.015.004-.015.004-.015.002-.015L3 4.779 3 4.764l.001-.014v-.044l-.002-.014z"/><path id="_330528368" class="fil1" d="m2.757 5.146 3.786 3.787-.025.017-.025.016-.025.014-.026.014-.025.012-.026.011-.025.01-.026.009-.026.007-.025.007-.026.005-.025.005-.025.003-.025.002-.024.001h-.048l-.023-.003-.023-.002-.023-.004-.021-.005-.022-.006-.02-.006-.02-.008-.02-.008-.018-.01-.018-.01-.017-.01-.016-.012-.015-.012-3.786-3.786.015.012.016.012.017.01.018.01.018.01.02.008.02.008.02.006.021.006.022.005.023.003.022.003.024.002H2.402l.025-.002.025-.004.025-.004.026-.005.025-.007.026-.008.025-.008.026-.01.026-.011.025-.012.026-.014.025-.015.025-.015z"/><path id="_328326792" class="fil1" d="m4.458 1.547.394 2.64c.023.148-.051.332-.241.468-.265.19-.576.163-.71.01-.136-.154-.095-.434.169-.624a.64.64 0 0 1 .528-.115L4.38 2.458l-1.625.585.243 1.634c.024.15-.05.333-.24.47-.264.19-.575.163-.71.01-.136-.154-.095-.434.168-.624a.641.641 0 0 1 .529-.116l-.32-2.138 2.034-.732z"/></g></g><path d="M3.413 0a3.413 3.413 0 1 1 0 6.827 3.413 3.413 0 0 1 0-6.827z" style="fill:none"/><path d="m2.425 2.279.319 2.138a.641.641 0 0 0-.529.116c-.263.19-.304.47-.169.623.136.154.447.18.71-.01.19-.136.265-.32.241-.469l-.243-1.634 1.625-.585.22 1.468a.64.64 0 0 0-.53.115c-.263.19-.304.47-.169.624.135.153.446.18.711-.01.19-.136.264-.32.24-.469l-.393-2.64-2.033.733z" style="fill:#dce775;fill-rule:nonzero"/><path class="fil4" d="M2.744 4.417a.641.641 0 0 0-.529.116c-.263.19-.304.47-.169.623.136.154.447.18.71-.01.19-.136.265-.32.241-.469-.05-.16-.141-.234-.253-.26zM4.598 3.926a.64.64 0 0 0-.528.115c-.264.19-.305.47-.17.624.135.153.446.18.711-.01.19-.136.264-.32.24-.469a.714.714 0 0 0-.253-.26z"/></g></svg>